<?xml version="1.0" encoding="UTF-8" standalone="no"?>
<!DOCTYPE svg PUBLIC "-//W3C//DTD SVG 1.1//EN" "http://www.w3.org/Graphics/SVG/1.1/DTD/svg11.dtd">
<svg version="1.1" xmlns="http://www.w3.org/2000/svg" xmlns:xlink="http://www.w3.org/1999/xlink" preserveAspectRatio="xMidYMid meet" viewBox="0 0 640 640" width="640" height="640"><defs><path d="M95 225C95 267 106.63 307.88 128.75 343.13C146.35 371.93 287.15 602.34 304.75 631.14C307.75 636.02 312.25 639.02 317.5 639.77C324.62 640.89 332.5 637.9 336.63 630.77C354.28 601.71 495.48 369.19 513.13 340.13C534.12 305.63 545 265.5 545 225C545 100.88 444.13 0 320 0C195.87 0 95 100.88 95 225ZM207.5 225C207.5 163.12 258.12 112.5 320 112.5C381.88 112.5 432.5 163.12 432.5 225C432.5 286.13 383.75 337.5 320 337.5C257 337.5 207.5 286.5 207.5 225Z" id="dRh1nqPi8"></path><path d="M320 112.5C381.88 112.5 432.5 163.12 432.5 225C432.5 286.13 383.75 337.5 320 337.5C320 367.75 320 609.74 320 639.99C326.4 640.14 332.98 637.07 336.63 630.77C354.28 601.71 495.48 369.19 513.13 340.13C534.12 305.63 545 265.5 545 225C545 100.88 444.13 0 320 0C320 22.5 320 101.25 320 112.5Z" id="aif61ceIo"></path><path d="M320 72.92C236.14 72.92 168.17 140.89 168.17 224.75C168.17 308.61 236.14 376.58 320 376.58C403.86 376.58 471.83 308.61 471.83 224.75C471.83 140.89 403.86 72.92 320 72.92Z" id="agDFMlGC2"></path><path d="M320 91.3L361.16 166.78L445.66 182.6L386.59 245.07L397.66 330.32L320 293.45L242.34 330.32L253.41 245.07L194.34 182.6L278.84 166.78L320 91.3Z" id="cKKMHTDQo"></path><path d="M386.59 245.06L397.66 330.32L320 293.45L320 91.3L361.16 166.78L445.66 182.6L386.59 245.06Z" id="a3e5S49Gc5"></path><path d="M320 210.81L397.66 330.32L386.59 245.06L372.79 224.16L320 210.81Z" id="c2dvGakqH9"></path><path d="M320 91.3L320 210.81L445.66 182.6L361.16 166.78L320 91.3Z" id="cCCoOO0xZ"></path><path d="M194.34 182.6L320 210.81L242.34 330.32L253.41 245.07L194.34 182.6Z" id="bWNsg2PB7"></path><path d="M386.59 245.06L320 210.81L445.66 182.6L386.59 245.06Z" id="bmIw48dds"></path><path d="M320 210.81L242.34 330.32L320 293.45L320 210.81Z" id="hp9lnouZN"></path></defs><g><g><g><use xlink:href="#dRh1nqPi8" opacity="1" fill="#fd003a" fill-opacity="1"></use><g><use xlink:href="#dRh1nqPi8" opacity="1" fill-opacity="0" stroke="#000000" stroke-width="1" stroke-opacity="0"></use></g></g><g><use xlink:href="#aif61ceIo" opacity="1" fill="#e50027" fill-opacity="1"></use><g><use xlink:href="#aif61ceIo" opacity="1" fill-opacity="0" stroke="#000000" stroke-width="1" stroke-opacity="0"></use></g></g><g><use xlink:href="#agDFMlGC2" opacity="1" fill="#e0e3ee" fill-opacity="1"></use><g><use xlink:href="#agDFMlGC2" opacity="1" fill-opacity="0" stroke="#000000" stroke-width="1" stroke-opacity="0"></use></g></g><g><use xlink:href="#cKKMHTDQo" opacity="1" fill="#ed2f54" fill-opacity="1"></use><g><use xlink:href="#cKKMHTDQo" opacity="1" fill-opacity="0" stroke="#000000" stroke-width="1" stroke-opacity="0"></use></g></g><g><use xlink:href="#a3e5S49Gc5" opacity="1" fill="#cc0e45" fill-opacity="1"></use><g><use xlink:href="#a3e5S49Gc5" opacity="1" fill-opacity="0" stroke="#000000" stroke-width="1" stroke-opacity="0"></use></g></g><g><use xlink:href="#c2dvGakqH9" opacity="1" fill="#a5003c" fill-opacity="1"></use><g><use xlink:href="#c2dvGakqH9" opacity="1" fill-opacity="0" stroke="#000000" stroke-width="1" stroke-opacity="0"></use></g></g><g><use xlink:href="#cCCoOO0xZ" opacity="1" fill="#cc0e45" fill-opacity="1"></use><g><use xlink:href="#cCCoOO0xZ" opacity="1" fill-opacity="0" stroke="#000000" stroke-width="1" stroke-opacity="0"></use></g></g><g><use xlink:href="#bWNsg2PB7" opacity="1" fill="#cc0e45" fill-opacity="1"></use><g><use xlink:href="#bWNsg2PB7" opacity="1" fill-opacity="0" stroke="#000000" stroke-width="1" stroke-opacity="0"></use></g></g><g><use xlink:href="#bmIw48dds" opacity="1" fill="#89002a" fill-opacity="1"></use><g><use xlink:href="#bmIw48dds" opacity="1" fill-opacity="0" stroke="#000000" stroke-width="1" stroke-opacity="0"></use></g></g><g><use xlink:href="#hp9lnouZN" opacity="1" fill="#a5003c" fill-opacity="1"></use><g><use xlink:href="#hp9lnouZN" opacity="1" fill-opacity="0" stroke="#000000" stroke-width="1" stroke-opacity="0"></use></g></g></g></g></svg>